<?xml version="1.0" standalone="no"?>
<!DOCTYPE svg PUBLIC "-//W3C//DTD SVG 20010904//EN"
 "http://www.w3.org/TR/2001/REC-SVG-20010904/DTD/svg10.dtd">
<svg version="1.0" xmlns="http://www.w3.org/2000/svg"
 width="300.000000pt" height="300.000000pt" viewBox="0 0 300.000000 300.000000"
 preserveAspectRatio="xMidYMid meet">
<metadata>
Created by potrace 1.10, written by Peter Selinger 2001-2011
</metadata>
<g transform="translate(0.000000,300.000000) scale(0.100000,-0.100000)"
fill="#000000" stroke="none">
<path d="M413 2989 c-62 -18 -63 -22 -63 -481 0 -339 3 -425 15 -473 49 -189
199 -336 383 -374 260 -54 525 118 587 380 22 94 22 471 -1 493 -20 20 -48 20
-68 0 -14 -13 -16 -48 -16 -224 0 -179 -3 -217 -20 -272 -27 -87 -86 -167
-161 -217 -79 -53 -125 -66 -229 -66 -74 0 -93 4 -150 31 -80 38 -133 83 -176
149 -62 98 -64 116 -64 562 l0 403 75 0 74 0 3 -407 c3 -396 4 -409 25 -448
84 -157 278 -191 398 -70 73 73 75 84 75 532 l0 393 75 0 75 0 0 -109 c0 -116
9 -141 50 -141 42 0 50 25 50 151 0 143 -11 173 -67 188 -20 6 -38 9 -40 8 -1
-2 8 -14 21 -28 13 -14 28 -35 35 -46 14 -27 15 -193 1 -193 -6 0 -10 34 -10
83 0 74 -3 86 -23 105 -19 18 -35 22 -93 22 -61 0 -74 -3 -92 -23 -21 -22 -22
-32 -22 -226 0 -132 -3 -200 -10 -196 -14 9 -13 400 1 428 6 12 23 35 38 51
25 28 25 28 4 22 -98 -27 -93 -3 -93 -476 0 -350 -2 -406 -16 -436 -36 -76
-138 -107 -204 -62 -19 13 -45 39 -57 57 -23 34 -23 34 -23 438 0 454 0 454
-67 472 -20 6 -38 9 -40 8 -1 -2 8 -14 21 -28 13 -14 28 -35 35 -46 14 -28 15
-409 1 -418 -7 -4 -10 63 -10 193 0 195 0 199 -23 220 -19 18 -35 22 -93 22
-61 0 -74 -3 -92 -23 -21 -22 -22 -32 -22 -226 0 -132 -3 -200 -10 -196 -14 9
-13 400 1 428 6 12 23 34 37 50 27 29 25 30 -25 16z m20 -986 c42 -109 158
-230 252 -265 19 -6 35 -15 35 -19 0 -8 -51 11 -104 38 -40 20 -113 90 -146
139 -52 74 -69 146 -70 290 -2 249 4 297 10 79 5 -169 10 -230 23 -262z m620
145 c-6 -101 -68 -179 -153 -193 l-35 -6 39 15 c75 28 136 111 136 184 0 31 6
52 14 52 1 0 0 -24 -1 -52z m-364 -91 c28 -45 74 -81 121 -96 l35 -11 -40 6
c-90 12 -156 94 -154 190 l2 49 6 -50 c3 -27 17 -67 30 -88z m592 -47 c-23
-74 -86 -169 -142 -211 -41 -31 -133 -79 -151 -79 -7 1 12 13 42 28 30 15 85
57 123 94 77 76 125 166 135 257 6 51 7 53 10 17 2 -21 -6 -69 -17 -106z"/>
<path d="M1563 2989 c-20 -6 -38 -21 -48 -39 -26 -51 -19 -80 37 -152 36 -46
70 -50 94 -13 16 25 16 27 -15 70 l-32 45 68 0 68 0 134 -191 c73 -104 143
-196 154 -204 27 -19 77 -19 103 -1 12 8 81 101 155 205 l134 190 68 1 69 0
-35 -47 c-157 -216 -341 -481 -348 -503 -6 -17 -6 -36 0 -52 8 -22 199 -296
348 -500 l35 -48 -69 0 -68 1 -130 185 c-71 102 -141 194 -154 205 -30 24 -82
24 -112 0 -13 -11 -82 -103 -154 -205 l-130 -185 -68 -1 -69 0 35 48 c149 204
341 482 349 503 13 37 0 63 -127 243 -111 157 -138 182 -174 159 -38 -24 -24
-55 92 -218 l115 -160 -33 -45 c-107 -148 -335 -472 -344 -489 -24 -43 -4
-104 40 -127 42 -21 196 -19 231 4 15 9 86 100 158 202 72 102 134 183 138
181 4 -2 65 -86 135 -185 70 -100 140 -189 155 -198 32 -21 185 -25 227 -6 47
21 68 89 42 134 -7 11 -92 134 -190 272 -99 138 -178 254 -178 259 1 4 75 112
165 238 214 300 216 304 216 332 0 44 -27 81 -67 92 -20 6 -38 9 -40 8 -1 -2
11 -18 27 -37 51 -59 47 -68 -139 -328 -190 -266 -210 -300 -194 -334 6 -13
86 -128 177 -256 187 -263 186 -261 186 -296 0 -29 -38 -60 -63 -50 -13 4 -10
11 15 33 l31 27 -18 35 c-10 19 -54 85 -99 148 -280 393 -270 376 -246 421 6
11 85 124 176 252 92 128 170 244 176 257 7 19 4 29 -13 48 -19 19 -32 23 -83
23 -42 0 -68 -6 -84 -18 -12 -9 -80 -98 -150 -197 l-128 -180 -39 0 -39 0
-128 180 c-70 99 -138 188 -150 197 -16 12 -42 18 -84 18 -51 0 -64 -4 -83
-24 -22 -23 -22 -25 -6 -56 19 -37 12 -53 -10 -24 -31 38 -36 63 -20 95 9 16
19 29 23 29 4 0 13 9 20 20 13 22 12 22 -35 9z m267 -484 c55 -76 103 -150
107 -163 8 -34 -1 -50 -168 -282 -83 -117 -163 -232 -177 -257 l-25 -46 31
-28 c24 -21 27 -29 16 -33 -34 -13 -80 36 -67 71 4 10 82 124 174 253 92 130
175 252 185 273 22 45 22 45 -97 212 -104 147 -105 149 -91 144 7 -2 57 -67
112 -144z m415 -583 c71 -100 144 -191 160 -202 26 -17 27 -20 9 -20 -31 0
-43 13 -164 185 -108 152 -153 205 -175 205 -24 0 -71 -55 -175 -205 -119
-171 -132 -185 -164 -185 -18 0 -17 3 7 18 16 9 72 78 125 152 182 256 169
242 210 238 35 -3 42 -11 167 -186z"/>
<path d="M1750 2964 c19 -21 91 -116 158 -210 68 -94 133 -177 146 -184 35
-18 62 4 141 118 127 181 168 237 199 269 16 18 28 34 25 36 -2 2 -18 0 -36
-5 -26 -7 -54 -40 -169 -203 -76 -107 -141 -192 -145 -188 -3 5 -66 92 -138
195 -83 117 -140 189 -154 193 -12 4 -31 9 -42 12 -15 5 -12 -3 15 -33z"/>
<path d="M14 1525 c-15 -23 -15 -27 0 -50 l16 -25 1470 0 1470 0 16 25 c15 23
15 27 0 50 l-16 25 -1470 0 -1470 0 -16 -25z"/>
<path d="M401 1336 c-50 -28 -50 -32 -51 -473 0 -264 4 -431 11 -465 41 -196
224 -371 403 -385 56 -4 59 -3 42 11 -10 8 -42 23 -70 32 -140 45 -242 131
-299 251 l-32 68 -1 175 -1 175 6 -165 c8 -181 15 -211 79 -309 41 -62 114
-123 192 -160 49 -23 67 -26 165 -26 108 0 113 1 187 38 134 66 227 190 254
337 11 58 12 61 13 24 2 -99 -75 -250 -160 -315 -44 -34 -120 -72 -194 -98
-88 -31 -94 -45 -16 -38 134 11 288 120 358 253 53 99 63 163 63 396 0 220 -4
238 -50 238 -46 0 -50 -18 -50 -240 0 -179 -3 -217 -20 -272 -27 -87 -86 -167
-161 -217 -71 -47 -109 -60 -201 -68 -171 -14 -341 104 -397 274 -20 60 -21
84 -21 468 l0 405 75 0 74 0 3 -407 c3 -396 4 -409 25 -448 84 -157 278 -191
398 -70 73 73 75 84 75 532 l0 393 75 0 75 0 0 -109 c0 -116 9 -141 50 -141
42 0 50 25 50 151 0 181 -16 199 -176 199 -106 0 -143 -13 -162 -55 -9 -19
-12 -137 -12 -426 0 -349 -2 -405 -16 -435 -36 -76 -138 -107 -204 -62 -19 13
-45 39 -57 57 -23 34 -23 34 -23 438 0 438 -1 447 -55 471 -36 17 -213 15
-244 -2z m40 -62 l-31 -26 0 -204 c0 -134 -3 -203 -10 -199 -6 4 -10 84 -10
208 0 222 6 247 56 247 l26 0 -31 -26z m203 4 c13 -19 16 -57 16 -218 0 -109
-5 -202 -10 -210 -6 -10 -10 55 -10 192 l0 206 -31 26 -31 26 26 0 c14 0 31
-9 40 -22z m447 -4 l-31 -26 0 -206 c0 -137 -4 -202 -10 -192 -5 8 -10 101
-10 210 0 214 6 240 56 240 l26 0 -31 -26z m203 4 c18 -26 23 -198 6 -198 -6
0 -10 35 -10 84 0 82 -1 85 -31 110 l-31 26 26 0 c14 0 31 -9 40 -22z m-606
-871 c29 -45 75 -81 122 -96 l35 -11 -39 6 c-49 7 -97 38 -127 83 -22 32 -24
44 -25 175 l-1 141 6 -130 c5 -113 9 -135 29 -168z m365 71 c-10 -90 -79 -164
-160 -173 -34 -4 -35 -4 -8 3 17 5 40 14 52 20 37 20 92 94 99 131 12 72 24
86 17 19z"/>
<path d="M1601 1336 c-40 -22 -50 -54 -51 -158 0 -169 12 -178 240 -178 l160
0 0 -325 0 -325 -160 0 c-228 0 -240 -9 -240 -176 0 -113 14 -149 63 -162 44
-12 46 -7 11 29 -27 28 -29 37 -33 120 -4 103 11 139 55 139 l26 0 -31 -26
c-29 -24 -31 -30 -31 -98 0 -63 3 -75 23 -94 23 -22 25 -22 468 -22 l446 0 21
23 c18 19 22 35 22 94 0 67 -2 73 -31 97 l-31 26 26 0 c44 0 59 -36 55 -139
-4 -83 -6 -92 -33 -120 -35 -36 -33 -41 11 -29 49 13 63 49 63 163 0 107 -12
144 -55 163 -17 8 -83 12 -185 12 l-160 0 0 184 c0 196 -5 216 -50 216 -46 0
-50 -19 -50 -225 0 -129 4 -203 12 -220 22 -48 52 -55 228 -55 l160 0 0 -75 0
-75 -450 0 -450 0 0 75 0 75 160 0 c176 0 206 7 228 55 17 37 17 703 0 740
-22 48 -52 55 -228 55 l-160 0 0 75 0 75 450 0 450 0 0 -75 0 -75 -160 0
c-221 0 -240 -12 -240 -150 0 -73 14 -100 50 -100 35 0 50 28 50 91 l0 59 160
0 c102 0 168 4 185 12 43 19 55 56 55 163 0 107 -12 144 -55 163 -40 18 -961
16 -994 -2z m1009 -159 c0 -94 -15 -127 -56 -127 l-26 0 31 26 c29 24 31 30
31 99 0 69 -2 75 -30 98 -25 22 -27 26 -12 30 9 2 27 -7 40 -20 19 -21 22 -35
22 -106z m-969 97 c-29 -24 -31 -30 -31 -96 0 -64 3 -72 29 -99 29 -29 29 -29
6 -29 -40 0 -55 35 -55 125 0 91 15 125 56 125 l26 0 -31 -26z m353 -246 c14
-19 16 -70 16 -353 0 -361 -2 -375 -56 -375 l-26 0 31 26 31 26 0 323 0 323
-31 26 -31 26 26 0 c14 0 31 -9 40 -22z m245 -7 c-19 -20 -29 -40 -29 -60 0
-17 -4 -31 -10 -31 -16 0 -12 73 6 98 8 12 26 22 39 22 23 0 23 0 -6 -29z
m-29 -505 l0 -164 31 -26 31 -26 -26 0 c-49 0 -56 28 -56 212 0 105 4 168 10
168 6 0 10 -61 10 -164z"/>
</g>
</svg>
